<svg width="259" height="489" viewBox="0 0 259 489" fill="none" xmlns="http://www.w3.org/2000/svg">
<path d="M249.454 440.842C236.51 466.632 211.091 483.843 182.34 486.287L177.472 486.7C145.437 489.42 113.226 489.42 81.1905 486.7L76.3342 486.287C47.5828 483.843 22.1641 466.632 9.22022 440.842C0.772341 424.01 -1.6971 404.803 2.21723 386.383L31.8167 247.145C35.1981 231.233 35.2732 214.795 32.0306 198.852L29.8577 188.171C27.2381 175.288 32.7362 162.103 43.7323 154.898C50.4989 150.462 54.5783 142.915 54.5783 134.823H204.088C204.088 142.915 208.164 150.462 214.934 154.898C225.93 162.103 231.428 175.288 228.809 188.171L226.636 198.852C223.393 214.795 223.468 231.233 226.85 247.145L256.449 386.383C260.364 404.806 257.898 424.01 249.446 440.842H249.454Z" fill="#B8EEFF"/>
<g style="mix-blend-mode:multiply">
<path d="M256.453 386.391L226.853 247.153C223.468 231.236 223.397 214.799 226.643 198.856L228.816 188.175C229.248 186.04 229.458 183.889 229.458 181.765C229.458 171.084 224.11 160.906 214.934 154.905C211.549 152.684 208.847 149.681 206.97 146.236C205.116 142.78 204.092 138.865 204.092 134.827H193.039L193.039 139.015C193.039 149.85 198.267 160.137 207.289 166.134C207.357 166.179 207.421 166.224 207.488 166.265C213.872 170.439 217.021 177.986 215.504 185.469L213.331 196.15C209.702 214.018 209.774 232.137 213.568 249.967L243.167 389.205C246.429 404.555 244.353 420.734 237.313 434.747C226.568 456.162 205.056 470.719 181.187 472.746L176.324 473.166C160.764 474.487 144.957 475.155 129.348 475.155C113.74 475.155 97.9058 474.487 82.3461 473.166L77.4936 472.746C53.6211 470.719 32.1092 456.162 21.3682 434.747C14.3277 420.73 12.2561 404.555 15.5137 389.205L45.1131 249.967C48.9036 232.133 48.9787 214.018 45.3496 196.15L43.1766 185.469C41.6567 177.986 44.8054 170.439 51.1929 166.265C51.2605 166.22 51.328 166.179 51.3918 166.134C60.4102 160.133 65.6418 149.846 65.6418 139.015L65.6418 134.827H54.5893C54.5893 138.865 53.576 142.78 51.6996 146.236C49.8456 149.681 47.1322 152.684 43.7471 154.905C32.7434 162.103 27.2491 175.28 29.8649 188.175L32.0379 198.856C34.3384 210.145 34.9727 221.681 33.9444 233.109C33.5203 237.819 32.8147 242.51 31.8277 247.156L2.22072 386.391C1.00851 392.095 0.40429 397.875 0.40429 403.628C0.404289 416.471 3.39163 429.231 9.21996 440.85C22.1601 466.636 47.5751 483.851 76.3377 486.283L81.1902 486.703C113.225 489.42 145.429 489.42 177.465 486.703L182.328 486.283C211.091 483.851 236.506 466.636 249.446 440.85C257.894 424.018 260.363 404.803 256.449 386.391H256.453Z" fill="#9CDCFF"/>
</g>
<path d="M178.395 94.7906L130.293 103.64L82.1807 94.7906L86.1325 77.831C87.8101 70.5954 91.9646 64.1553 97.8755 59.6292L106.504 53.0316C111.487 49.2073 114.418 43.2889 114.418 37.0065C114.418 34.8711 114.077 32.7356 113.409 30.7053L111.934 26.2205C109.472 18.7447 111.795 10.522 117.8 5.43671C125.009 -0.673082 135.574 -0.669329 142.779 5.43671C148.784 10.5257 151.1 18.7447 148.642 26.2168L147.167 30.7053C146.499 32.7356 146.157 34.8711 146.157 37.0065C146.157 43.2852 149.088 49.2036 154.072 53.0316L162.7 59.6292C168.607 64.1553 172.762 70.5954 174.443 77.831L178.395 94.7906Z" fill="#FFDC4B"/>
<g style="mix-blend-mode:multiply">
<path d="M175.517 82.4397L174.443 77.8348C172.762 70.5991 168.615 64.1628 162.7 59.633L154.08 53.0391C149.092 49.2111 146.165 43.2964 146.165 37.0103C146.165 34.8748 146.499 32.7357 147.167 30.7128L148.649 26.2318C149.302 24.2427 149.614 22.2049 149.614 20.1933C149.614 14.6127 147.193 9.18967 142.783 5.44799C140.708 3.69536 138.374 2.43437 135.904 1.7063C136.325 2.07784 136.73 2.4719 137.128 2.89223C140.697 6.69396 142.562 11.6854 142.562 16.7481C142.562 19.5628 141.98 22.3925 140.794 25.0721L138.805 29.5682C137.89 31.5948 137.312 33.779 137.075 35.9895C136.385 42.4971 138.719 48.9559 143.35 53.4519C143.35 53.4519 143.358 53.4594 143.373 53.4782C152.714 64.6057 144.926 81.5953 130.399 81.8017L85.0631 82.4472L82.1846 94.7981L130.297 103.651L178.399 94.7981L175.52 82.4472L175.517 82.4397Z" fill="#FF7A17"/>
</g>
<path d="M211.279 121.999L211.279 135.844C211.279 138.351 209.248 140.381 206.741 140.381H53.8313C51.3243 140.381 49.2939 138.351 49.2939 135.844L49.2939 121.999C49.2939 112.49 54.777 103.828 63.375 99.7633L69.5411 96.8472C71.1286 96.0966 72.1381 94.5016 72.1381 92.7453C72.1381 90.2383 74.1685 88.2079 76.6754 88.2079H183.893C186.4 88.2079 188.431 90.2383 188.431 92.7453C188.431 94.4979 189.44 96.0966 191.028 96.8472L197.194 99.7633C205.792 103.831 211.275 112.49 211.275 121.999H211.279Z" fill="#6C9DE5"/>
<g style="mix-blend-mode:screen" opacity="0.56">
<path d="M108.017 90.6774C107.795 91.2966 107.66 91.9984 107.66 92.7415C107.66 94.4941 106.921 96.1004 105.746 96.8397L101.213 99.767C94.8889 103.831 90.8508 112.486 90.8508 121.996L90.8508 135.852C90.8508 136.606 90.9859 137.296 91.2073 137.916H68.0891C67.7664 137.296 67.5937 136.606 67.5937 135.852L67.5937 121.996C67.5937 112.486 73.0768 103.831 81.671 99.767L87.8334 96.8397C89.4246 96.1004 90.4379 94.4941 90.4379 92.7415C90.4379 92.0022 90.6106 91.2966 90.9333 90.6774H108.013H108.017Z" fill="#6C9DE5"/>
</g>
<g style="mix-blend-mode:multiply" opacity="0.39">
<path d="M211.278 121.992L211.278 135.848C211.278 138.355 209.252 140.381 206.745 140.381H157.72C159.51 140.381 160.955 138.355 160.955 135.848L160.955 121.992C160.955 112.482 157.041 103.828 150.904 99.7633L146.495 96.836C145.358 96.0966 144.641 94.4904 144.641 92.7378C144.641 90.2308 143.185 88.2042 141.395 88.2042H183.9C186.407 88.2042 188.434 90.2308 188.434 92.7378C188.434 94.4904 189.447 96.0966 191.027 96.836L197.201 99.7633C205.795 103.828 211.278 112.482 211.278 121.992Z" fill="#6C9DE5"/>
</g>
<g style="mix-blend-mode:screen" opacity="0.71">
<path d="M124.446 18.3806C124.195 23.8036 126.51 29.039 124.848 31.1519C123.369 33.5125 114.745 28.7913 114.67 18.3806C114.745 7.96996 123.365 3.25251 124.848 5.60936C126.51 7.71852 124.195 12.9576 124.446 18.3806Z" fill="#FFE888"/>
</g>
<path d="M256.453 386.391L226.853 247.153C223.468 231.236 223.397 214.799 226.643 198.856L228.816 188.175C229.248 186.04 229.458 183.889 229.458 181.765C229.458 171.084 224.11 160.906 214.934 154.905C211.549 152.684 208.847 149.681 206.97 146.236C205.987 144.397 205.236 142.43 204.748 140.381H193.069C193.49 150.706 198.646 160.388 207.285 166.134C207.353 166.179 207.417 166.224 207.484 166.265C213.868 170.439 217.017 177.986 215.501 185.469L213.328 196.15C209.699 214.018 209.77 232.137 213.564 249.967L243.164 389.205C246.425 404.555 244.35 420.734 237.309 434.747C226.564 456.162 205.052 470.719 181.184 472.746L176.32 473.166C160.76 474.487 144.953 475.155 129.344 475.155C113.736 475.155 97.9021 474.487 82.3424 473.166L77.4898 472.746C53.6173 470.719 32.1054 456.162 21.3645 434.747C14.324 420.73 12.2523 404.555 15.5099 389.205L45.1094 249.967C48.8999 232.133 48.9749 214.018 45.3458 196.15L43.1729 185.469C41.6529 177.986 44.8017 170.439 51.1892 166.265C51.2567 166.22 51.3243 166.179 51.3881 166.134C60.0274 160.388 65.1839 150.706 65.6042 140.381H53.9288C53.4409 142.427 52.6903 144.397 51.6921 146.236C49.8381 149.681 47.1247 152.684 43.7396 154.905C32.7359 162.103 27.2416 175.28 29.8574 188.175L32.0304 198.856C34.3309 210.145 34.9652 221.681 33.9369 233.109C33.5128 237.819 32.8072 242.51 31.8202 247.156L2.22072 386.391C1.01227 392.095 0.40429 397.875 0.40429 403.632C0.40429 416.474 3.39163 429.231 9.21996 440.853C22.1601 466.64 47.5751 483.855 76.3377 486.287L81.1902 486.707C113.225 489.424 145.429 489.424 177.465 486.707L182.328 486.287C211.091 483.855 236.506 466.64 249.446 440.853C257.894 424.021 260.363 404.806 256.449 386.394L256.453 386.391Z" fill="#43C5FF"/>
</svg>
